<svg xmlns="http://www.w3.org/2000/svg" viewBox="0 0 512 512">
  <defs>
    <clipPath id="c"><rect width="512" height="512" rx="100"/></clipPath>
  </defs>
  <!-- Fundo escuro -->
  <rect width="512" height="512" rx="100" fill="#0a1628"/>
  <!-- Faixas azuis -->
  <rect y="0" width="512" height="170" fill="#1a3a6e" clip-path="url(#c)"/>
  <rect y="160" width="512" height="180" fill="#2d5a9e" clip-path="url(#c)"/>
  <rect y="330" width="512" height="180" fill="#1a5ba8" clip-path="url(#c)"/>
  <!-- Elipses coloridas -->
  <ellipse cx="70" cy="120" rx="55" ry="72" fill="#2ea84e" clip-path="url(#c)"/>
  <ellipse cx="442" cy="390" rx="58" ry="75" fill="#e8501a" clip-path="url(#c)"/>
  <ellipse cx="442" cy="120" rx="52" ry="68" fill="#7b3fa8" clip-path="url(#c)"/>
  <ellipse cx="70" cy="390" rx="48" ry="62" fill="#e8b820" clip-path="url(#c)"/>
  <ellipse cx="256" cy="65" rx="44" ry="56" fill="#18a8c8" clip-path="url(#c)"/>
  <!-- Faixa vermelha Panini topo -->
  <rect y="0" width="512" height="40" fill="#e8001a" clip-path="url(#c)"/>
  <text x="256" y="29" text-anchor="middle" font-family="Arial" font-size="20" font-weight="700" fill="white" letter-spacing="4">PANINI</text>
  <!-- Taça -->
  <path d="M206,120 L215,175 Q208,210 224,228 L288,228 Q304,210 297,175 L306,120 Z" fill="#c8922a"/>
  <path d="M215,135 Q185,148 188,172 Q191,195 215,192" fill="none" stroke="#c8922a" stroke-width="10"/>
  <path d="M297,135 Q327,148 324,172 Q321,195 297,192" fill="none" stroke="#c8922a" stroke-width="10"/>
  <rect x="224" y="228" width="64" height="12" fill="#c8922a"/>
  <rect x="210" y="240" width="92" height="10" rx="4" fill="#c8922a"/>
  <!-- 26 -->
  <text x="256" y="400" text-anchor="middle" font-family="Arial Black" font-size="200" font-weight="900" fill="white">26</text>
  <!-- Faixa inferior -->
  <rect y="430" width="512" height="82" fill="#0a0a0a" opacity="0.88" clip-path="url(#c)"/>
  <text x="256" y="466" text-anchor="middle" font-family="Arial" font-size="16" font-weight="700" fill="#c8922a" letter-spacing="4">WORLD CUP</text>
  <text x="256" y="498" text-anchor="middle" font-family="Arial Black" font-size="26" font-weight="900" fill="white">ÁLBUM COPA</text>
  <!-- Borda dourada -->
  <rect x="5" y="5" width="502" height="502" rx="96" fill="none" stroke="#c8922a" stroke-width="10"/>
</svg>
